<?xml version="1.0" encoding="utf-8"?>
<!-- Generator: Adobe Illustrator 23.1.0, SVG Export Plug-In . SVG Version: 6.00 Build 0)  -->
<svg version="1.1" id="アイコン" xmlns="http://www.w3.org/2000/svg" xmlns:xlink="http://www.w3.org/1999/xlink" x="0px"
	 y="0px" width="666px" height="666px" viewBox="0 0 666 666" style="enable-background:new 0 0 666 666;" xml:space="preserve">
<style type="text/css">
	.st0{fill:url(#SVGID_1_);}
	.st1{fill:url(#SVGID_2_);}
</style>
<g>
	<linearGradient id="SVGID_1_" gradientUnits="userSpaceOnUse" x1="312.9979" y1="90.555" x2="312.9979" y2="590.5551">
		<stop  offset="8.174351e-07" style="stop-color:#80FFDB"/>
		<stop  offset="0.0753" style="stop-color:#75F2DD"/>
		<stop  offset="0.2711" style="stop-color:#5CD6E0"/>
		<stop  offset="0.4425" style="stop-color:#4DC5E2"/>
		<stop  offset="0.5698" style="stop-color:#48BFE3"/>
		<stop  offset="0.6516" style="stop-color:#5588D7"/>
		<stop  offset="0.735" style="stop-color:#6058CC"/>
		<stop  offset="0.8142" style="stop-color:#6932C3"/>
		<stop  offset="0.8871" style="stop-color:#6F16BD"/>
		<stop  offset="0.9513" style="stop-color:#7306B9"/>
		<stop  offset="1" style="stop-color:#7400B8"/>
	</linearGradient>
	<path class="st0" d="M401.176,226.619L238.96,388.835c-1.718,1.718-4.525,1.641-6.157-0.159
		c-29.251-32.29-25.921-76.349,3.082-105.355l61.522-61.52c6.385-6.385,6.385-16.737,0-23.123v0
		c-6.273-6.273-16.404-6.399-22.831-0.284l-57.636,54.836c-5.416,5.188-7.358,6.994-6.627,13.163c0.803,6.771-3.53,6.564-5.65,4.272
		l-2.939-3.183l-34.284-37.137l-0.376-0.409c-5.068-5.068-1.643-11.052,4.603-8.811c2.668,0.957,4.973,0.727,8.269-2.312
		l45.472-41.978c2.463-2.272,16.888-16.894,29.489-30.064l-0.944-3.474c-6.842-17.827,2.899-27.899,19.338-31.708l14.068-3.718
		c3.098-0.819,5.931-2.364,8.229-4.498l16.412-15.21c7.423-6.882,19.298-6.882,26.722,0l16.412,15.21
		c2.298,2.133,5.125,3.679,8.223,4.498l22.125,5.845c10.012,2.648,15.95,12.384,13.361,21.907l-4.28,15.798
		c-1.651,6.063,0.145,12.509,4.729,17.02c0.7,0.687,1.328,1.407,1.882,2.16l0,0C416.646,186.069,416.646,211.15,401.176,226.619z
		 M367.466,365.645l-36.633-36.633c-1.319-1.319-3.457-1.319-4.776,0L251.84,403.23c-1.319,1.319-1.319,3.457,0,4.776l36.633,36.633
		c1.319,1.319,3.457,1.319,4.776,0l74.218-74.218C368.785,369.102,368.785,366.963,367.466,365.645z M440.042,458.446l-0.052-0.052
		c-1.66-1.631-4.324-1.62-5.969,0.026l-26.803,26.803c-1.666,1.666-1.654,4.37,0.026,6.021l0,0
		c10.241,10.24,5.647,27.909-2.013,35.574c-4.417,4.418-10.058,5.345-14.011,5.345c-6.643,0-13.439-2.547-18.645-6.988
		c-2.981-2.543-6.135-7.884-6.46-14.084c-0.322-6.132,2.108-11.984,7.221-17.398l17.448-17.179c2.079-2.047,2.021-5.417-0.127-7.392
		l-1.413-1.299c-2.321-2.133-2.618-5.696-0.668-8.172c8.326-10.577,12.502-23.355,12.502-36.14c0-13.424-4.589-26.847-13.763-37.722
		c-1.747-2.071-4.914-2.163-6.83-0.247l-38.468,38.468l-0.018-0.017l-33.794,33.793c-1.717,1.717-1.461,4.569,0.534,5.953
		l13.304,9.228c1.964,1.362,2.623,3.966,1.539,6.096c-6.686,13.137-9.244,27.318-7.411,41.349
		c2.019,15.451,9.174,29.703,20.689,41.216C350.639,575.411,368.961,583,388.45,583c19.49,0,37.812-7.589,51.592-21.369
		C468.49,533.183,468.49,486.894,440.042,458.446z"/>
	<linearGradient id="SVGID_2_" gradientUnits="userSpaceOnUse" x1="317.2983" y1="100.2533" x2="317.2983" y2="580.2533">
		<stop  offset="8.174351e-07" style="stop-color:#80FFDB"/>
		<stop  offset="0.0753" style="stop-color:#75F2DD"/>
		<stop  offset="0.2711" style="stop-color:#5CD6E0"/>
		<stop  offset="0.4425" style="stop-color:#4DC5E2"/>
		<stop  offset="0.5698" style="stop-color:#48BFE3"/>
		<stop  offset="0.6516" style="stop-color:#5588D7"/>
		<stop  offset="0.735" style="stop-color:#6058CC"/>
		<stop  offset="0.8142" style="stop-color:#6932C3"/>
		<stop  offset="0.8871" style="stop-color:#6F16BD"/>
		<stop  offset="0.9513" style="stop-color:#7306B9"/>
		<stop  offset="1" style="stop-color:#7400B8"/>
	</linearGradient>
	<path class="st1" d="M388.451,573c-16.817,0-32.629-6.549-44.521-18.441c-9.943-9.94-16.114-22.195-17.845-35.44
		c-1.56-11.936,0.656-24.218,6.407-35.517c3.334-6.555,1.291-14.657-4.751-18.85l-4.507-3.126c-1.454-1.008-1.64-3.087-0.389-4.338
		l19.371-19.371l6.87-6.833l30.88-30.879c1.674-1.674,4.511-1.262,5.605,0.837c3.59,6.885,5.506,14.597,5.506,22.47
		c0,10.83-3.68,21.468-10.36,29.955c-3.839,4.878-4.387,11.422-1.873,16.774c0.76,1.618,0.474,3.53-0.8,4.785l-11.854,11.67
		l-0.125,0.132c-6.965,7.374-10.401,15.945-9.938,24.788c0.514,9.783,5.48,17.35,9.958,21.169c6.988,5.96,16.149,9.379,25.134,9.379
		c8.38,0,15.67-2.861,21.083-8.273c9.157-9.161,14.854-27.91,7.368-42.407c-0.931-1.803-0.564-4.005,0.871-5.44l13.509-13.509
		c1.497-1.497,3.999-1.346,5.249,0.362c18,24.607,15.894,59.442-6.327,81.663C421.08,566.452,405.268,573,388.451,573z
		 M267.655,401.558l56.732-56.732c2.242-2.242,5.877-2.242,8.119,0l19.147,19.147c2.242,2.242,2.242,5.877,0,8.119l-56.732,56.732
		c-2.242,2.242-5.877,2.242-8.119,0l-19.147-19.147C265.413,407.435,265.413,403.8,267.655,401.558z M239.801,373.852
		c-1.858,1.858-4.96,1.56-6.418-0.625c-7.73-11.58-11.472-24.548-10.893-38.032c0.704-16.396,7.973-32.308,20.468-44.803
		l61.522-61.52c10.272-10.274,10.272-26.991,0-37.265c-4.979-4.978-11.596-7.718-18.635-7.718c-6.791,0-13.24,2.578-18.161,7.26
		L209.9,246.127c-1.378,1.32-2.711,2.597-3.925,3.924c-1.805,1.972-4.911,1.969-6.725,0.005l-14.911-16.151
		c-1.65-1.787-1.478-4.645,0.455-6.122c0.644-0.492,1.283-1.031,1.921-1.619l45.478-41.983c2.805-2.586,17.462-17.467,29.932-30.498
		l1.811-1.893c1.301-1.359,1.794-3.301,1.3-5.116l-1.765-6.49l-0.181-0.472c-1.817-4.733-2.038-8.451-0.658-11.049
		c1.695-3.192,6.283-5.796,12.918-7.334l0.298-0.074l14.067-3.718c4.676-1.237,8.989-3.601,12.476-6.836l16.407-15.206
		c1.737-1.61,4.068-2.496,6.564-2.496s4.826,0.886,6.562,2.495l16.415,15.211c3.48,3.231,7.792,5.595,12.462,6.831l22.129,5.846
		c2.408,0.637,4.37,2.086,5.521,4.08c0.698,1.208,1.394,3.15,0.745,5.536l-4.283,15.806c-2.583,9.486,0.237,19.746,7.366,26.762
		c0.329,0.323,0.611,0.645,0.849,0.967l0.446,0.605l0.063,0.063c5.449,5.459,8.882,12.726,9.127,20.436
		c0.263,8.271-2.836,16.089-8.658,21.91L239.801,373.852z"/>
</g>
</svg>
